<svg width="32" height="32" viewBox="0 0 32 32" fill="none" xmlns="http://www.w3.org/2000/svg">
<path d="M30.375 0.375H1.625C0.933594 0.375 0.375 0.933594 0.375 1.625V30.375C0.375 31.0664 0.933594 31.625 1.625 31.625H30.375C31.0664 31.625 31.625 31.0664 31.625 30.375V1.625C31.625 0.933594 31.0664 0.375 30.375 0.375ZM29.125 29.125H21.9336V19.5234H25.9961L26.6055 14.8086H21.9336V11.7969C21.9336 10.4297 22.3125 9.5 24.2695 9.5H26.7656V5.28125C26.332 5.22266 24.8516 5.09375 23.125 5.09375C19.5234 5.09375 17.0586 7.29297 17.0586 11.3281V14.8047H12.9883V19.5195H17.0625V29.125H2.875V2.875H29.125V29.125Z" fill="url(#paint0_linear_53_1147)"/>
<defs>
<linearGradient id="paint0_linear_53_1147" x1="16" y1="0.375" x2="16" y2="31.625" gradientUnits="userSpaceOnUse">
<stop stop-color="#E2BD7D"/>
<stop offset="1" stop-color="#7C6845"/>
</linearGradient>
</defs>
</svg>
