<svg width="40" height="40" viewBox="0 0 40 40" fill="none" xmlns="http://www.w3.org/2000/svg">
<path d="M19.9999 11.9883C15.5663 11.9883 11.9882 15.5664 11.9882 20C11.9882 24.4336 15.5663 28.0117 19.9999 28.0117C24.4335 28.0117 28.0117 24.4336 28.0117 20C28.0117 15.5664 24.4335 11.9883 19.9999 11.9883ZM19.9999 25.207C17.1328 25.207 14.7929 22.8672 14.7929 20C14.7929 17.1328 17.1328 14.793 19.9999 14.793C22.8671 14.793 25.207 17.1328 25.207 20C25.207 22.8672 22.8671 25.207 19.9999 25.207ZM28.3398 9.79297C27.3046 9.79297 26.4687 10.6289 26.4687 11.6641C26.4687 12.6992 27.3046 13.5352 28.3398 13.5352C29.3749 13.5352 30.2109 12.7031 30.2109 11.6641C30.2112 11.4183 30.163 11.1748 30.0691 10.9477C29.9752 10.7205 29.8373 10.5141 29.6635 10.3403C29.4897 10.1665 29.2833 10.0287 29.0562 9.93477C28.829 9.84085 28.5856 9.79266 28.3398 9.79297ZM35.6171 20C35.6171 17.8438 35.6367 15.707 35.5156 13.5547C35.3945 11.0547 34.8242 8.83594 32.996 7.00781C31.164 5.17578 28.9492 4.60938 26.4492 4.48828C24.2929 4.36719 22.1562 4.38672 20.0038 4.38672C17.8476 4.38672 15.7109 4.36719 13.5585 4.48828C11.0585 4.60938 8.83979 5.17969 7.01166 7.00781C5.17963 8.83985 4.61322 11.0547 4.49213 13.5547C4.37103 15.7109 4.39057 17.8477 4.39057 20C4.39057 22.1523 4.37103 24.293 4.49213 26.4453C4.61322 28.9453 5.18353 31.1641 7.01166 32.9922C8.84369 34.8242 11.0585 35.3906 13.5585 35.5117C15.7148 35.6328 17.8515 35.6133 20.0038 35.6133C22.1601 35.6133 24.2968 35.6328 26.4492 35.5117C28.9492 35.3906 31.1679 34.8203 32.996 32.9922C34.8281 31.1602 35.3945 28.9453 35.5156 26.4453C35.6406 24.293 35.6171 22.1563 35.6171 20ZM32.1796 29.2109C31.8945 29.9219 31.5507 30.4531 30.9999 31C30.4492 31.5508 29.9218 31.8945 29.2109 32.1797C27.1562 32.9961 22.2773 32.8125 19.9999 32.8125C17.7226 32.8125 12.8398 32.9961 10.7851 32.1836C10.0742 31.8984 9.54291 31.5547 8.99604 31.0039C8.44525 30.4531 8.1015 29.9258 7.81635 29.2148C7.00385 27.1563 7.18744 22.2773 7.18744 20C7.18744 17.7227 7.00385 12.8398 7.81635 10.7852C8.1015 10.0742 8.44525 9.54297 8.99604 8.9961C9.54682 8.44922 10.0742 8.10156 10.7851 7.81641C12.8398 7.00391 17.7226 7.1875 19.9999 7.1875C22.2773 7.1875 27.1601 7.00391 29.2148 7.81641C29.9257 8.10156 30.457 8.44531 31.0038 8.9961C31.5546 9.54688 31.8984 10.0742 32.1835 10.7852C32.996 12.8398 32.8124 17.7227 32.8124 20C32.8124 22.2773 32.996 27.1563 32.1796 29.2109Z" fill="url(#paint0_linear_53_1153)"/>
<defs>
<linearGradient id="paint0_linear_53_1153" x1="20.0041" y1="4.38556" x2="20.0041" y2="35.6144" gradientUnits="userSpaceOnUse">
<stop stop-color="#E2BD7D"/>
<stop offset="1" stop-color="#7C6845"/>
</linearGradient>
</defs>
</svg>
